<svg xmlns="http://www.w3.org/2000/svg" xmlns:xlink="http://www.w3.org/1999/xlink" width="310" height="310" viewBox="0 0 310 310">
  <defs>
    <style>
      .cls-1 {
        fill: #acd7f6;
      }

      .cls-2 {
        fill: #2d81c0;
      }

      .cls-3 {
        filter: url(#Elipse_69);
      }
    </style>
    <filter id="Elipse_69" x="0" y="0" width="310" height="310" filterUnits="userSpaceOnUse">
      <feOffset dy="3" input="SourceAlpha"/>
      <feGaussianBlur stdDeviation="25" result="blur"/>
      <feFlood flood-color="#bebebe" flood-opacity="0.502"/>
      <feComposite operator="in" in2="blur"/>
      <feComposite in="SourceGraphic"/>
    </filter>
  </defs>
  <g id="Grupo_2534" data-name="Grupo 2534" transform="translate(-578.43 -1124.57)">
    <g class="cls-3" transform="matrix(1, 0, 0, 1, 578.43, 1124.57)">
      <circle id="Elipse_69-2" data-name="Elipse 69" class="cls-1" cx="80" cy="80" r="80" transform="translate(75 232) rotate(-90)"/>
    </g>
    <g id="send" transform="translate(695.43 1247.73)">
      <g id="Grupo_2363" data-name="Grupo 2363" transform="translate(0 0.001)">
        <path id="Trazado_2679" data-name="Trazado 2679" class="cls-2" d="M57.183.5A1.69,1.69,0,0,0,55.36.122L1.063,21.841a1.69,1.69,0,0,0-.11,3.089L22.364,35.314,32.749,56.725a1.69,1.69,0,0,0,1.52.952h.06a1.69,1.69,0,0,0,1.509-1.061l21.719-54.3A1.69,1.69,0,0,0,57.183.5ZM5.869,23.558l43.1-17.241L23.284,32ZM34.12,51.81,25.674,34.394,51.362,8.706Z" transform="translate(0 -0.001)"/>
      </g>
    </g>
  </g>
</svg>
