<svg xmlns="http://www.w3.org/2000/svg" width="51.694" height="51.809" viewBox="0 0 51.694 51.809">
  <defs>
    <style>
      .cls-1 {
        fill: #eb85da;
      }
    </style>
  </defs>
  <g id="workflow" transform="translate(-0.001)">
    <path id="Trazado_2395" data-name="Trazado 2395" class="cls-1" d="M11.5,18.733H28.658a.785.785,0,0,0,.785-.785V.785A.785.785,0,0,0,28.658,0H11.5a.785.785,0,0,0-.785.785V17.948A.785.785,0,0,0,11.5,18.733Z" transform="translate(-9.086)"/>
    <path id="Trazado_2396" data-name="Trazado 2396" class="cls-1" d="M11.914,190.222a.785.785,0,0,0-1.11,0L.6,200.427a.785.785,0,0,0,0,1.11L10.8,211.742a.785.785,0,0,0,1.11,0l10.205-10.205a.785.785,0,0,0,0-1.11Z" transform="translate(-0.369 -160.163)"/>
    <path id="Trazado_2397" data-name="Trazado 2397" class="cls-1" d="M199.455,18.833h9.883a.785.785,0,0,0,.68-.393l4.941-8.559a.785.785,0,0,0,0-.785L210.017.538a.785.785,0,0,0-.68-.393h-9.883a.785.785,0,0,0-.68.393L193.833,9.1a.785.785,0,0,0,0,.785l4.941,8.559A.785.785,0,0,0,199.455,18.833Z" transform="translate(-163.37 -0.122)"/>
    <path id="Trazado_2398" data-name="Trazado 2398" class="cls-1" d="M212.477,196.432a9.979,9.979,0,1,0,9.979,9.979A9.991,9.991,0,0,0,212.477,196.432Z" transform="translate(-170.763 -165.592)"/>
    <path id="Trazado_2399" data-name="Trazado 2399" class="cls-1" d="M62.419,126.5a.549.549,0,0,0-.55.549v7.222a.549.549,0,0,0,.55.549h1.256a.549.549,0,0,0,.55-.549v-7.222a.55.55,0,0,0-.55-.549Z" transform="translate(-52.213 -106.636)"/>
    <path id="Trazado_2400" data-name="Trazado 2400" class="cls-1" d="M258.11,128.164a.549.549,0,0,0-.549.55v7.222a.55.55,0,0,0,.549.55h1.256a.55.55,0,0,0,.55-.55v-7.222a.55.55,0,0,0-.55-.55Z" transform="translate(-217.181 -108.042)"/>
    <path id="Trazado_2401" data-name="Trazado 2401" class="cls-1" d="M148.86,53.336h-5.482a.549.549,0,0,0-.549.55v1.256a.549.549,0,0,0,.549.55h5.482a.55.55,0,0,0,.549-.55V53.886A.55.55,0,0,0,148.86,53.336Z" transform="translate(-120.461 -44.962)"/>
  </g>
</svg>
