<svg id="Grupo_2281" data-name="Grupo 2281" xmlns="http://www.w3.org/2000/svg" width="228.722" height="66.847" viewBox="0 0 228.722 66.847">
  <defs>
    <style>
      .cls-1, .cls-2 {
        fill: #f2f2ff;
      }

      .cls-1 {
        font-size: 34px;
        font-family: OpenSans-ExtraBold, Open Sans;
        font-weight: 800;
      }
    </style>
  </defs>
  <text id="JornalYa" class="cls-1" transform="translate(79.722 56.214)"><tspan x="0" y="0">JornalYa</tspan></text>
  <g id="Grupo_2274" data-name="Grupo 2274" transform="translate(0 0)">
    <g id="Grupo_2269" data-name="Grupo 2269">
      <path id="Trazado_2484" data-name="Trazado 2484" class="cls-2" d="M115.261,270.353a1.45,1.45,0,0,0,.037-.186V246.241a3.481,3.481,0,0,0-2.236-3.258c-1.493-.86-16.489-9.506-18.356-10.586a5.494,5.494,0,0,0-5.686.375L69.833,243.847c-.027.015-.041.04-.065.056a1.371,1.371,0,0,0-.161.128,1.446,1.446,0,0,0-.166.162,1.5,1.5,0,0,0-.121.151c-.017.024-.042.037-.057.062s-.019.07-.036.1a1.538,1.538,0,0,0-.086.2,1.493,1.493,0,0,0-.055.2,1.725,1.725,0,0,0-.027.21c0,.037-.021.068-.021.105v24.2a3.471,3.471,0,0,0,2.236,3.256l18.354,10.585a4.771,4.771,0,0,0,2.412.641c.037,0,.071-.01.109-.01a.243.243,0,0,0,.053.011c.051,0,.094-.025.145-.03a6.183,6.183,0,0,0,2.978-.989l19.193-11.355a1.872,1.872,0,0,0,.142-.128,1.554,1.554,0,0,0,.241-.218,1.519,1.519,0,0,0,.164-.244,1.416,1.416,0,0,0,.13-.274A1.487,1.487,0,0,0,115.261,270.353Zm-21.474,9.758v-16.09a1.586,1.586,0,1,0-3.173,0v16.151c-3.543-2.046-17.874-10.309-17.874-10.309a.947.947,0,0,0-.3-.136c-.231-.1-.231-.248-.231-.3v-21.4l13.542,8.117a1.562,1.562,0,0,0,.814.228,1.587,1.587,0,0,0,.816-2.948l-13.629-8.171,16.906-9.762c.042-.025.084-.051.124-.078a2.485,2.485,0,0,1,2.333-.262l17.3,9.974-13.591,7.828a1.586,1.586,0,1,0,1.583,2.749l13.72-7.9v21.463Z" transform="translate(-69.038 -231.758)"/>
    </g>
    <g id="Grupo_2270" data-name="Grupo 2270" transform="translate(21.542 4.335)">
      <path id="Trazado_2485" data-name="Trazado 2485" class="cls-2" d="M108.3,254.194a1.586,1.586,0,0,0,1.586-1.587V240.921a1.587,1.587,0,0,0-3.175,0v11.686A1.587,1.587,0,0,0,108.3,254.194Z" transform="translate(-106.713 -239.339)"/>
    </g>
    <g id="Grupo_2271" data-name="Grupo 2271" transform="translate(20.292 23.02)">
      <path id="Trazado_2486" data-name="Trazado 2486" class="cls-2" d="M107.419,272.017a2.891,2.891,0,1,0,2.89,2.893A2.893,2.893,0,0,0,107.419,272.017Z" transform="translate(-104.527 -272.017)"/>
    </g>
    <g id="Grupo_2272" data-name="Grupo 2272" transform="translate(28.784 28.255)">
      <path id="Trazado_2487" data-name="Trazado 2487" class="cls-2" d="M131.762,287.494l-9.97-6.088a1.588,1.588,0,0,0-1.655,2.711l9.973,6.086a1.553,1.553,0,0,0,.823.233,1.587,1.587,0,0,0,.828-2.942Z" transform="translate(-119.378 -281.173)"/>
    </g>
    <g id="Grupo_2273" data-name="Grupo 2273" transform="translate(4.108 28.549)">
      <path id="Trazado_2488" data-name="Trazado 2488" class="cls-2" d="M86.953,281.921l-9.971,6.089a1.587,1.587,0,0,0,1.655,2.709l9.971-6.09a1.587,1.587,0,1,0-1.655-2.708Z" transform="translate(-76.222 -281.688)"/>
    </g>
  </g>
  <g id="Grupo_2277" data-name="Grupo 2277" transform="translate(38.403 20.657)">
    <g id="Grupo_2276" data-name="Grupo 2276">
      <g id="Grupo_2275" data-name="Grupo 2275">
        <path id="Trazado_2489" data-name="Trazado 2489" class="cls-2" d="M148.379,267.885a12.179,12.179,0,1,0,12.179,12.179A12.193,12.193,0,0,0,148.379,267.885Z" transform="translate(-136.2 -267.885)"/>
      </g>
    </g>
  </g>
  <g id="Grupo_2280" data-name="Grupo 2280" transform="translate(30.283 47.722)">
    <g id="Grupo_2279" data-name="Grupo 2279">
      <g id="Grupo_2278" data-name="Grupo 2278">
        <path id="Trazado_2490" data-name="Trazado 2490" class="cls-2" d="M157.452,320.468A17.362,17.362,0,0,0,145,315.218h-5.413a17.362,17.362,0,0,0-12.447,5.25A17.749,17.749,0,0,0,122,332.99a1.354,1.354,0,0,0,1.353,1.353h37.89a1.354,1.354,0,0,0,1.353-1.353A17.749,17.749,0,0,0,157.452,320.468Z" transform="translate(-122 -315.218)"/>
      </g>
    </g>
  </g>
</svg>
