<svg xmlns="http://www.w3.org/2000/svg" width="414.591" height="91.478" viewBox="0 0 414.591 91.478">

  <defs>
    <style>
      .cls-1, .cls-4 {
        fill: #322f87;
      }

      .cls-1 {
        font-size: 44px;
        font-family: "OpenSans-ExtraBold, Open Sans";
        font-weight: 800;
      }

      .cls-2 {
        fill: none;
      }

      .cls-3 {
        fill: #f8b100;
      }
    </style>
  </defs>
  <g id="Grupo_2346" data-name="Grupo 2346" transform="translate(-69.038 -92.091)">
    <text id="Sorprendeme" class="cls-1"><tspan x="0" y="0">Sorprendeme</tspan></text>
    <g id="Grupo_2345" data-name="Grupo 2345" transform="translate(69.038 92.091)">
      <path id="Trazado_2643" data-name="Trazado 2643" class="cls-2" d="M161.8,188.9a2.472,2.472,0,1,0,2.472,2.472A2.475,2.475,0,0,0,161.8,188.9Z" transform="translate(-93.768 -118.608)"/>
      <path id="Trazado_2644" data-name="Trazado 2644" class="cls-2" d="M144.1,155.535a1.9,1.9,0,0,1-.082.4,1.812,1.812,0,0,1-.166.347,1.985,1.985,0,0,1-.208.311,2.051,2.051,0,0,1-.306.277c-.065.049-.11.118-.18.162l-14.371,8.5v8.824h49.289l0-29.572H144.147V155.3A1.855,1.855,0,0,1,144.1,155.535Z" transform="translate(-85.404 -106.526)"/>
      <path id="Trazado_2645" data-name="Trazado 2645" class="cls-2" d="M140.118,144.788h-11.33V145l8.893,5.432a2.015,2.015,0,0,1-1.051,3.735,1.973,1.973,0,0,1-1.046-.3l-6.8-4.147v11.128l11.33-6.7Z" transform="translate(-85.404 -106.526)"/>
      <path id="Trazado_2646" data-name="Trazado 2646" class="cls-2" d="M108.074,133.231a2.011,2.011,0,0,1,1.521-3.673,4.931,4.931,0,0,1,4.347-2.611h11.33V113.981l-17.422,10.031a2.014,2.014,0,1,1-2.01-3.491l17.259-9.94c-4.837-2.789-19.873-11.459-21.963-12.666-1.318-.759-2.946.32-2.963.333-.051.036-.1.068-.158.1l-21.468,12.4,17.307,10.376a2.015,2.015,0,0,1-1.036,3.744,1.983,1.983,0,0,1-1.034-.289l-17.2-10.306v27.175c0,.07,0,.26.293.385a1.218,1.218,0,0,1,.377.172s18.2,10.492,22.7,13.091V134.581a2.015,2.015,0,1,1,4.029,0v20.432l7.027-4.158V133.8Zm-16.57.37-12.662,7.732a2.015,2.015,0,1,1-2.1-3.439L89.4,130.161a2.015,2.015,0,1,1,2.1,3.439Zm6.41-32.474a2.016,2.016,0,0,1,4.031,0v14.839a2.016,2.016,0,0,1-4.031,0ZM100,130.187a3.671,3.671,0,1,1,3.67-3.67A3.671,3.671,0,0,1,100,130.187Z" transform="translate(-70.559 -93.612)"/>
      <path id="Trazado_2647" data-name="Trazado 2647" class="cls-3" d="M100.466,153.492V133.06a2.015,2.015,0,1,0-4.029,0v20.509c-4.5-2.6-22.7-13.091-22.7-13.091a1.218,1.218,0,0,0-.377-.172c-.293-.125-.293-.314-.293-.385V112.747l17.2,10.306a1.983,1.983,0,0,0,1.034.289,2.015,2.015,0,0,0,1.036-3.744L75.028,109.222,96.5,96.826c.053-.031.107-.064.158-.1.017-.012,1.645-1.091,2.963-.333,2.09,1.207,17.126,9.877,21.963,12.666L104.32,119a2.014,2.014,0,1,0,2.01,3.491l17.422-10.031v12.965h4.029V110.482a4.421,4.421,0,0,0-2.84-4.137c-1.9-1.092-20.938-12.071-23.31-13.442a6.975,6.975,0,0,0-7.221.476L70.048,107.442c-.034.02-.052.051-.083.072a1.729,1.729,0,0,0-.2.161,1.831,1.831,0,0,0-.211.206,1.993,1.993,0,0,0-.153.192c-.022.03-.053.047-.073.079s-.024.089-.046.131a2,2,0,0,0-.11.256,1.9,1.9,0,0,0-.07.251,2.2,2.2,0,0,0-.034.267c0,.046-.026.086-.026.133v30.731a4.407,4.407,0,0,0,2.84,4.134c1.9,1.093,20.938,12.076,23.307,13.441a6.059,6.059,0,0,0,3.063.814c.046,0,.09-.012.139-.012a.324.324,0,0,0,.068.013,1.848,1.848,0,0,0,.184-.038,7.844,7.844,0,0,0,3.781-1.256l5.073-3v-4.683Z" transform="translate(-69.038 -92.091)"/>
      <path id="Trazado_2648" data-name="Trazado 2648" class="cls-3" d="M108.73,118.535a2.014,2.014,0,0,0,2.014-2.014V101.682a2.016,2.016,0,0,0-4.031,0v14.839A2.015,2.015,0,0,0,108.73,118.535Z" transform="translate(-79.358 -94.168)"/>
      <path id="Trazado_2649" data-name="Trazado 2649" class="cls-3" d="M108.2,132.35a3.671,3.671,0,1,0,3.67,3.673A3.674,3.674,0,0,0,108.2,132.35Z" transform="translate(-78.759 -103.119)"/>
      <path id="Trazado_2650" data-name="Trazado 2650" class="cls-3" d="M121.863,141.575a2.011,2.011,0,0,0-1.521,3.673l.94.574v-1.929A4.893,4.893,0,0,1,121.863,141.575Z" transform="translate(-82.827 -105.63)"/>
      <path id="Trazado_2651" data-name="Trazado 2651" class="cls-3" d="M89.849,142.316l-12.662,7.733a2.015,2.015,0,0,0,2.1,3.439l12.662-7.732a2.015,2.015,0,1,0-2.1-3.439Z" transform="translate(-71.006 -105.768)"/>
      <path id="Trazado_2652" data-name="Trazado 2652" class="cls-4" d="M122,147.445V164.5l4.929-2.916V150.452Z" transform="translate(-83.545 -107.253)"/>
      <path id="Trazado_2653" data-name="Trazado 2653" class="cls-4" d="M122.8,140.611a2,2,0,0,1,.58.23l3.767,2.3v-.213h11.33V138h-11.33A4.931,4.931,0,0,0,122.8,140.611Z" transform="translate(-83.764 -104.666)"/>
      <path id="Trazado_2654" data-name="Trazado 2654" class="cls-4" d="M176.216,138H142.288v4.929h33.928l0,29.572H126.929v-8.824L122,166.593V177.43a4.935,4.935,0,0,0,4.929,4.929h17.256c-.052,1.966-.428,5.11-1.837,6.6a2.422,2.422,0,0,1-1.865.8,1.232,1.232,0,1,0,0,2.464h22.179a1.232,1.232,0,1,0,0-2.464,2.413,2.413,0,0,1-1.863-.8c-1.406-1.478-1.784-4.627-1.838-6.6h17.255a4.934,4.934,0,0,0,4.929-4.929v-34.5A4.934,4.934,0,0,0,176.216,138Zm-24.643,41.9a2.472,2.472,0,1,1,2.472-2.472A2.475,2.475,0,0,1,151.572,179.9Z" transform="translate(-83.545 -104.666)"/>
      <path id="Trazado_2655" data-name="Trazado 2655" class="cls-4" d="M126.929,166.913,122,169.829v4.683l4.929-2.916Z" transform="translate(-83.545 -112.586)"/>
      <rect id="Rectángulo_1897" data-name="Rectángulo 1897" class="cls-4" width="4.029" height="4.929" transform="translate(54.714 33.334)"/>
      <path id="Trazado_2656" data-name="Trazado 2656" class="cls-4" d="M122.582,141.6a4.893,4.893,0,0,0-.582,2.318v1.929l4.929,3.007v-4.724l-3.767-2.3A2,2,0,0,0,122.582,141.6Z" transform="translate(-83.545 -105.651)"/>
    </g>
  </g>
</svg>
