<svg xmlns="http://www.w3.org/2000/svg" width="228.959" height="74.889" viewBox="0 0 228.959 74.889">
  <defs>
    <style>
      .cls-1, .cls-3 {
        fill: #fff;
      }

      .cls-2 {
        fill: #4a50fd;
      }

      .cls-3 {
        font-size: 36px;
        font-family: OpenSans-ExtraBold, Open Sans;
        font-weight: 800;
      }
    </style>
  </defs>
  <g id="Grupo_2531" data-name="Grupo 2531" transform="translate(-186.038 -625.758)">
    <g id="Grupo_2528" data-name="Grupo 2528" transform="translate(186.038 625.758)">
      <g id="Grupo_2523" data-name="Grupo 2523">
        <path id="Trazado_8125" data-name="Trazado 8125" class="cls-1" d="M234.573,666.283a1.527,1.527,0,0,0,.038-.2V640.965a3.655,3.655,0,0,0-2.348-3.421c-1.568-.9-17.313-9.981-19.274-11.116a5.769,5.769,0,0,0-5.971.394l-20.145,11.629c-.028.016-.043.042-.068.059a1.44,1.44,0,0,0-.169.134,1.512,1.512,0,0,0-.175.17,1.573,1.573,0,0,0-.127.159c-.018.025-.044.039-.06.065s-.02.074-.038.108a1.618,1.618,0,0,0-.091.212,1.572,1.572,0,0,0-.058.208,1.817,1.817,0,0,0-.028.22c0,.038-.022.071-.022.11v25.411a3.644,3.644,0,0,0,2.348,3.419l19.272,11.114a5.01,5.01,0,0,0,2.532.673c.038,0,.074-.01.115-.01a.256.256,0,0,0,.056.011c.054,0,.1-.026.152-.031a6.492,6.492,0,0,0,3.127-1.039l20.153-11.923a1.954,1.954,0,0,0,.149-.135,1.631,1.631,0,0,0,.253-.229,1.6,1.6,0,0,0,.172-.256,1.488,1.488,0,0,0,.137-.288A1.562,1.562,0,0,0,234.573,666.283Zm-22.547,10.246V659.634a1.666,1.666,0,1,0-3.332,0v16.958c-3.721-2.149-18.768-10.824-18.768-10.824a.994.994,0,0,0-.312-.142c-.243-.1-.243-.26-.243-.318V642.837l14.219,8.523a1.64,1.64,0,0,0,.855.239,1.666,1.666,0,0,0,.857-3.1l-14.311-8.58,17.751-10.25c.044-.026.088-.053.13-.082a2.609,2.609,0,0,1,2.45-.275l18.16,10.473-14.271,8.219a1.665,1.665,0,1,0,1.662,2.887l14.406-8.294v22.537Z" transform="translate(-186.038 -625.758)"/>
      </g>
      <g id="Grupo_2524" data-name="Grupo 2524" transform="translate(22.62 4.552)">
        <path id="Trazado_8126" data-name="Trazado 8126" class="cls-1" d="M225.381,648.936a1.665,1.665,0,0,0,1.665-1.666V635a1.667,1.667,0,0,0-3.333,0v12.27A1.666,1.666,0,0,0,225.381,648.936Z" transform="translate(-223.713 -633.339)"/>
      </g>
      <g id="Grupo_2525" data-name="Grupo 2525" transform="translate(21.307 24.171)">
        <path id="Trazado_8127" data-name="Trazado 8127" class="cls-1" d="M224.564,666.017a3.036,3.036,0,1,0,3.034,3.037A3.038,3.038,0,0,0,224.564,666.017Z" transform="translate(-221.527 -666.017)"/>
      </g>
      <g id="Grupo_2526" data-name="Grupo 2526" transform="translate(30.223 29.668)">
        <path id="Trazado_8128" data-name="Trazado 8128" class="cls-1" d="M249.381,681.81l-10.468-6.393a1.668,1.668,0,0,0-1.738,2.847l10.472,6.39a1.631,1.631,0,0,0,.865.245,1.666,1.666,0,0,0,.869-3.089Z" transform="translate(-236.378 -675.173)"/>
      </g>
      <g id="Grupo_2527" data-name="Grupo 2527" transform="translate(4.313 29.977)">
        <path id="Trazado_8129" data-name="Trazado 8129" class="cls-1" d="M204.49,675.932l-10.47,6.394a1.666,1.666,0,0,0,1.738,2.844l10.47-6.394a1.666,1.666,0,1,0-1.738-2.844Z" transform="translate(-193.222 -675.688)"/>
      </g>
    </g>
    <path id="Trazado_8133" data-name="Trazado 8133" class="cls-2" d="M260.144,677.006l-10.212,11.933,2.281,7.195,7.932-12.635,5.405-3.51Z" transform="translate(-25.533 -20.479)"/>
    <text id="SignBox" class="cls-3" transform="translate(265.997 689.647)"><tspan x="0" y="0">SignBox</tspan></text>
    <g id="Page-1" transform="translate(217.836 640.161)">
      <g id="Grupo_2530" data-name="Grupo 2530" transform="translate(0)">
        <g id="Grupo_2529" data-name="Grupo 2529">
          <path id="Shape" class="cls-1" d="M294.893,649.748c-.173,3.657-1.674,11.234-10.57,16.957a.392.392,0,0,0-.064.045,5.817,5.817,0,0,1-2.583-.946.91.91,0,0,0-1,1.51,7.757,7.757,0,0,0,1.474.755c-2.529,1.565-4.33,2.565-5.722,3.33a17.175,17.175,0,0,0-4.6,3.184,9.179,9.179,0,0,1-4.794-.646.91.91,0,0,0-.819,1.619,9.353,9.353,0,0,0,4.048.9c-.8,1.064-1.756,2.474-3.021,4.367-2.274,1-5.494,1.837-8.4.382a.916.916,0,0,0-.819,1.638,9.449,9.449,0,0,0,4.248.964,12.515,12.515,0,0,0,3.011-.391,13.849,13.849,0,0,1-13.063,4.521,5.586,5.586,0,0,1-2.429-1.164c.163-.7.345-1.419.555-2.156,5.176-13.763,11.5-15.647,20.249-18.248a67.035,67.035,0,0,0,15.583-6.295.913.913,0,0,0-.91-1.583,65.035,65.035,0,0,1-15.192,6.131c-8.906,2.647-15.929,4.739-21.432,19.349l-.391.792a.311.311,0,0,0-.036.082,5.191,5.191,0,0,1-.319-.728,20.348,20.348,0,0,1-.418-12.745c.019-.082.055-.163.082-.245a8.5,8.5,0,0,0,1.019,2.3.91.91,0,0,0,.755.409.854.854,0,0,0,.5-.155.9.9,0,0,0,.255-1.255,11.428,11.428,0,0,1-1.319-4.321,21.61,21.61,0,0,1,6.395-7.714,15.821,15.821,0,0,0-1.282,6.167.91.91,0,1,0,1.819,0,14.691,14.691,0,0,1,2.6-8.16,24.321,24.321,0,0,1,7.887-2.583,16.629,16.629,0,0,0-1.292,2.147.91.91,0,0,0,.4,1.219.825.825,0,0,0,.409.1.892.892,0,0,0,.809-.5,14.87,14.87,0,0,1,2.193-3.211c2.1-.127,4.221-.091,6.286-.036.737.009,1.464.027,2.192.036a12.485,12.485,0,0,0-.537,1.674.909.909,0,0,0,1.765.437,9.887,9.887,0,0,1,.782-2.11c5.43-.082,10.852-.973,15.692-5.822Z" transform="translate(-242.059 -649.748)"/>
          <path id="Trazado_8131" data-name="Trazado 8131" class="cls-1" d="M249.007,722.667h-6.9l2.993-2.993a.91.91,0,0,0,.264-.609,50.68,50.68,0,0,1,1.365-8.933,6.047,6.047,0,0,1-1.2-1.3,5.326,5.326,0,0,1-.373-.627,27.463,27.463,0,0,1-2.366,3.957A22.436,22.436,0,0,0,239,723.576a.9.9,0,0,0,.564.837.765.765,0,0,0,.346.073h9.1a.91.91,0,0,0,0-1.819Zm-4.794-9.37a50.789,50.789,0,0,0-.646,5.331l-2.465,2.465A21.653,21.653,0,0,1,244.213,713.3Z" transform="translate(-239 -673.107)"/>
          <path id="Trazado_8132" data-name="Trazado 8132" class="cls-1" d="M290.231,732.294h-29.11a.91.91,0,1,0,0,1.819h29.11a.91.91,0,1,0,0-1.819Z" transform="translate(-247.477 -682.735)"/>
        </g>
      </g>
    </g>
  </g>
</svg>
