<svg id="Grupo_2292" data-name="Grupo 2292" xmlns="http://www.w3.org/2000/svg" width="265.16" height="63.927" viewBox="0 0 265.16 63.927">
  <defs>
    <style>
      .cls-1, .cls-2 {
        fill: #fff;
      }

      .cls-1 {
        font-size: 34px;
        font-family: OpenSans-ExtraBold, Open Sans;
        font-weight: 800;
      }
    </style>
  </defs>
  <g id="Grupo_2290" data-name="Grupo 2290" transform="translate(0 0)">
    <text id="Workflow" class="cls-1" transform="translate(92.16 53.927)"><tspan x="0" y="0">Workflow</tspan></text>
    <g id="Grupo_2289" data-name="Grupo 2289">
      <g id="Grupo_2284" data-name="Grupo 2284">
        <path id="Trazado_2506" data-name="Trazado 2506" class="cls-2" d="M108.261,543.686a1.443,1.443,0,0,0,.037-.186V519.574a3.481,3.481,0,0,0-2.236-3.258c-1.493-.86-16.489-9.506-18.356-10.586a5.493,5.493,0,0,0-5.686.375L62.833,517.18c-.027.015-.041.04-.065.057a1.372,1.372,0,0,0-.161.127,1.442,1.442,0,0,0-.166.162,1.561,1.561,0,0,0-.121.151c-.017.024-.042.037-.057.062s-.019.07-.036.1a1.575,1.575,0,0,0-.086.2,1.5,1.5,0,0,0-.055.2,1.735,1.735,0,0,0-.027.21c0,.036-.021.067-.021.1v24.2a3.471,3.471,0,0,0,2.236,3.256L82.629,556.6a4.771,4.771,0,0,0,2.412.641c.037,0,.071-.009.109-.009a.255.255,0,0,0,.053.01,1.46,1.46,0,0,0,.145-.03,6.177,6.177,0,0,0,2.978-.989l19.193-11.355c.055-.034.09-.089.142-.128a1.614,1.614,0,0,0,.241-.218,1.527,1.527,0,0,0,.164-.245,1.428,1.428,0,0,0,.13-.273A1.5,1.5,0,0,0,108.261,543.686Zm-21.474,9.758v-16.09a1.586,1.586,0,1,0-3.173,0V553.5C80.071,551.459,65.74,543.2,65.74,543.2a.959.959,0,0,0-.3-.135c-.231-.1-.231-.248-.231-.3v-21.4l13.542,8.116a1.562,1.562,0,0,0,.814.228,1.587,1.587,0,0,0,.816-2.948l-13.629-8.171,16.906-9.762c.042-.025.084-.05.124-.078a2.485,2.485,0,0,1,2.333-.262c1.646.95,13.486,7.778,17.3,9.974l-13.591,7.828a1.586,1.586,0,1,0,1.583,2.749l13.72-7.9v21.463Z" transform="translate(-62.038 -505.091)"/>
      </g>
      <g id="Grupo_2285" data-name="Grupo 2285" transform="translate(21.542 4.335)">
        <path id="Trazado_2507" data-name="Trazado 2507" class="cls-2" d="M101.3,527.526a1.586,1.586,0,0,0,1.586-1.586V514.255a1.587,1.587,0,0,0-3.175,0V525.94A1.587,1.587,0,0,0,101.3,527.526Z" transform="translate(-99.713 -512.672)"/>
      </g>
      <g id="Grupo_2286" data-name="Grupo 2286" transform="translate(20.292 23.02)">
        <path id="Trazado_2508" data-name="Trazado 2508" class="cls-2" d="M100.419,545.35a2.891,2.891,0,1,0,2.89,2.893A2.893,2.893,0,0,0,100.419,545.35Z" transform="translate(-97.527 -545.35)"/>
      </g>
      <g id="Grupo_2287" data-name="Grupo 2287" transform="translate(28.784 28.255)">
        <path id="Trazado_2509" data-name="Trazado 2509" class="cls-2" d="M124.762,560.828l-9.97-6.089a1.588,1.588,0,0,0-1.655,2.711l9.973,6.086a1.553,1.553,0,0,0,.823.233,1.586,1.586,0,0,0,.828-2.941Z" transform="translate(-112.378 -554.506)"/>
      </g>
      <g id="Grupo_2288" data-name="Grupo 2288" transform="translate(4.108 28.549)">
        <path id="Trazado_2510" data-name="Trazado 2510" class="cls-2" d="M79.953,555.254l-9.971,6.09a1.587,1.587,0,0,0,1.655,2.708l9.971-6.089a1.587,1.587,0,1,0-1.655-2.708Z" transform="translate(-69.222 -555.021)"/>
      </g>
    </g>
  </g>
  <g id="Grupo_2291" data-name="Grupo 2291" transform="translate(36.212 24.535)">
    <path id="Trazado_2511" data-name="Trazado 2511" class="cls-2" d="M128.049,561.852H140.74a.58.58,0,0,0,.58-.58V548.58a.58.58,0,0,0-.58-.58H128.049a.58.58,0,0,0-.58.58v12.691A.58.58,0,0,0,128.049,561.852Z" transform="translate(-126.268 -548)"/>
    <path id="Trazado_2512" data-name="Trazado 2512" class="cls-2" d="M133.906,586.745a.58.58,0,0,0-.821,0l-7.546,7.547a.579.579,0,0,0,0,.82l7.546,7.547a.581.581,0,0,0,.821,0l7.546-7.547a.58.58,0,0,0,0-.82Z" transform="translate(-125.369 -564.518)"/>
    <path id="Trazado_2513" data-name="Trazado 2513" class="cls-2" d="M168.862,561.848h7.308a.58.58,0,0,0,.5-.29l3.654-6.329a.581.581,0,0,0,0-.58l-3.654-6.329a.58.58,0,0,0-.5-.29h-7.308a.581.581,0,0,0-.5.29l-3.654,6.329a.581.581,0,0,0,0,.58l3.654,6.329A.582.582,0,0,0,168.862,561.848Z" transform="translate(-142.18 -548.012)"/>
    <path id="Trazado_2514" data-name="Trazado 2514" class="cls-2" d="M173.788,587.883a7.379,7.379,0,1,0,7.38,7.379A7.387,7.387,0,0,0,173.788,587.883Z" transform="translate(-142.943 -565.078)"/>
    <path id="Trazado_2515" data-name="Trazado 2515" class="cls-2" d="M138.263,573.683a.406.406,0,0,0-.407.406v5.34a.406.406,0,0,0,.407.407h.929a.406.406,0,0,0,.406-.407v-5.34a.406.406,0,0,0-.406-.406Z" transform="translate(-130.716 -558.998)"/>
    <path id="Trazado_2516" data-name="Trazado 2516" class="cls-2" d="M177.995,574.022a.407.407,0,0,0-.407.407v5.34a.407.407,0,0,0,.407.407h.929a.406.406,0,0,0,.407-.407v-5.34a.406.406,0,0,0-.407-.407Z" transform="translate(-147.73 -559.143)"/>
    <path id="Trazado_2517" data-name="Trazado 2517" class="cls-2" d="M158.754,558.829H154.7a.406.406,0,0,0-.407.407v.929a.407.407,0,0,0,.407.407h4.054a.407.407,0,0,0,.406-.407v-.929A.406.406,0,0,0,158.754,558.829Z" transform="translate(-137.755 -552.637)"/>
  </g>
</svg>
