<svg xmlns="http://www.w3.org/2000/svg" xmlns:xlink="http://www.w3.org/1999/xlink" width="214" height="214" viewBox="0 0 214 214">
  <defs>
    <style>
      .cls-1 {
        fill: #dbc7ff;
      }

      .cls-2 {
        fill: #7c4fce;
      }

      .cls-3 {
        filter: url(#Rect치ngulo_1911);
      }
    </style>
    <filter id="Rect치ngulo_1911" x="0" y="0" width="214" height="214" filterUnits="userSpaceOnUse">
      <feOffset dy="3" input="SourceAlpha"/>
      <feGaussianBlur stdDeviation="22.5" result="blur"/>
      <feFlood flood-color="#c8b8b8" flood-opacity="0.502"/>
      <feComposite operator="in" in2="blur"/>
      <feComposite in="SourceGraphic"/>
    </filter>
  </defs>
  <g id="Grupo_2539" data-name="Grupo 2539" transform="translate(-88.5 -2772.5)">
    <g class="cls-3" transform="matrix(1, 0, 0, 1, 88.5, 2772.5)">
      <rect id="Rect치ngulo_1911-2" data-name="Rect치ngulo 1911" class="cls-1" width="79" height="79" rx="39.5" transform="translate(67.5 64.5)"/>
    </g>
    <g id="verify" transform="translate(175.934 2856.934)">
      <path id="Trazado_2667" data-name="Trazado 2667" class="cls-2" d="M10.593,17.259a1.209,1.209,0,0,1-.857-.357L5.349,12.479a1.207,1.207,0,1,1,1.715-1.7l3.471,3.5,6.824-7.865A1.206,1.206,0,0,1,19.181,8L11.5,16.842a1.21,1.21,0,0,1-.872.417h-.04Z" transform="translate(3.042 3.65)"/>
      <path id="Trazado_2668" data-name="Trazado 2668" class="cls-2" d="M15.279,30.559A15.279,15.279,0,1,1,30.559,15.279,15.3,15.3,0,0,1,15.279,30.559Zm0-28.146A12.867,12.867,0,1,0,28.146,15.279,12.882,12.882,0,0,0,15.279,2.413Z" transform="translate(0)"/>
      <path id="Trazado_2669" data-name="Trazado 2669" class="cls-2" d="M28.153,29.36a1.2,1.2,0,0,1-.852-.354L15.544,17.249a1.207,1.207,0,0,1,1.706-1.706L29.007,27.3a1.207,1.207,0,0,1-.854,2.06Z" transform="translate(9.241 9.241)"/>
    </g>
  </g>
</svg>
