<svg id="engranaje" xmlns="http://www.w3.org/2000/svg" width="62.911" height="62.911" viewBox="0 0 62.911 62.911">
  <defs>
    <style>
      .cls-1 {
        fill: #404899;
      }
    </style>
  </defs>
  <g id="Grupo_2532" data-name="Grupo 2532">
    <path id="Trazado_8293" data-name="Trazado 8293" class="cls-1" d="M61.068,24.7H55.853a25.043,25.043,0,0,0-2.368-5.714l3.688-3.688a1.843,1.843,0,0,0,0-2.606L50.222,5.738a1.843,1.843,0,0,0-2.606,0L43.928,9.426a25.049,25.049,0,0,0-5.714-2.368V1.843A1.843,1.843,0,0,0,36.37,0h-9.83A1.843,1.843,0,0,0,24.7,1.843V7.058a25.049,25.049,0,0,0-5.714,2.368L15.295,5.738a1.843,1.843,0,0,0-2.606,0L5.738,12.688a1.843,1.843,0,0,0,0,2.606l3.688,3.688A25.038,25.038,0,0,0,7.058,24.7H1.843A1.843,1.843,0,0,0,0,26.54v9.83a1.843,1.843,0,0,0,1.843,1.843H7.058a25.043,25.043,0,0,0,2.368,5.714L5.738,47.616a1.843,1.843,0,0,0,0,2.606l6.951,6.951a1.843,1.843,0,0,0,2.606,0l3.688-3.688A25.049,25.049,0,0,0,24.7,55.853v5.214a1.843,1.843,0,0,0,1.843,1.843h9.83a1.843,1.843,0,0,0,1.843-1.843V55.853a25.049,25.049,0,0,0,5.714-2.368l3.688,3.688a1.843,1.843,0,0,0,2.606,0l6.951-6.951a1.843,1.843,0,0,0,0-2.606l-3.688-3.688a25.037,25.037,0,0,0,2.368-5.714h5.215a1.843,1.843,0,0,0,1.843-1.843V26.54A1.843,1.843,0,0,0,61.068,24.7ZM31.455,45.586a14.13,14.13,0,1,1,14.13-14.13A14.146,14.146,0,0,1,31.455,45.586Z"/>
  </g>
</svg>
