<svg xmlns="http://www.w3.org/2000/svg" xmlns:xlink="http://www.w3.org/1999/xlink" width="310" height="310" viewBox="0 0 310 310">
  <defs>
    <style>
      .cls-1 {
        fill: #f3b7c8;
      }

      .cls-2 {
        fill: #ee5983;
        stroke: #ee5983;
      }

      .cls-3 {
        filter: url(#Elipse_70);
      }
    </style>
    <filter id="Elipse_70" x="0" y="0" width="310" height="310" filterUnits="userSpaceOnUse">
      <feOffset dy="3" input="SourceAlpha"/>
      <feGaussianBlur stdDeviation="25" result="blur"/>
      <feFlood flood-color="#bebebe" flood-opacity="0.502"/>
      <feComposite operator="in" in2="blur"/>
      <feComposite in="SourceGraphic"/>
    </filter>
  </defs>
  <g id="Grupo_2535" data-name="Grupo 2535" transform="translate(-805.43 -1292.57)">
    <g class="cls-3" transform="matrix(1, 0, 0, 1, 805.43, 1292.57)">
      <circle id="Elipse_70-2" data-name="Elipse 70" class="cls-1" cx="80" cy="80" r="80" transform="translate(75 232) rotate(-90)"/>
    </g>
    <g id="diagram" transform="translate(922.525 1404.955)">
      <g id="Grupo_2364" data-name="Grupo 2364">
        <path id="Trazado_2680" data-name="Trazado 2680" class="cls-2" d="M74.545,34.114H65.7V26.533a1.264,1.264,0,0,0-1.263-1.263H39.168V15.162h8.844A1.264,1.264,0,0,0,49.276,13.9V1.263A1.264,1.264,0,0,0,48.012,0H27.8a1.264,1.264,0,0,0-1.263,1.263V13.9A1.264,1.264,0,0,0,27.8,15.162h8.844V25.27H11.371a1.264,1.264,0,0,0-1.263,1.263v7.581H1.263A1.264,1.264,0,0,0,0,35.377V48.012a1.264,1.264,0,0,0,1.263,1.263H21.479a1.264,1.264,0,0,0,1.263-1.263V35.377a1.264,1.264,0,0,0-1.263-1.263H12.635V27.8H36.641v6.317H27.8a1.264,1.264,0,0,0-1.263,1.263V48.012A1.264,1.264,0,0,0,27.8,49.276h8.844V60.647H27.8a1.264,1.264,0,0,0-1.263,1.263V74.545A1.264,1.264,0,0,0,27.8,75.809H48.012a1.264,1.264,0,0,0,1.263-1.263V61.91a1.264,1.264,0,0,0-1.263-1.263H39.168V49.276h8.844a1.264,1.264,0,0,0,1.263-1.263V35.377a1.264,1.264,0,0,0-1.263-1.263H39.168V27.8H63.174v6.317H54.329a1.264,1.264,0,0,0-1.263,1.263V48.012a1.264,1.264,0,0,0,1.263,1.263H74.545a1.264,1.264,0,0,0,1.263-1.263V35.377A1.264,1.264,0,0,0,74.545,34.114ZM20.216,36.641V46.749H2.527V36.641ZM46.749,63.174V73.282H29.06V63.174Zm0-26.533V46.749H29.06V36.641ZM29.06,12.635V2.527H46.749V12.635ZM73.282,46.749H55.593V36.641H73.282Z"/>
      </g>
    </g>
  </g>
</svg>
