<svg xmlns="http://www.w3.org/2000/svg" xmlns:xlink="http://www.w3.org/1999/xlink" width="310" height="310" viewBox="0 0 310 310">
  <defs>
    <style>
      .cls-1 {
        fill: #ffd39f;
      }

      .cls-2 {
        fill: #fba440;
      }

      .cls-3 {
        filter: url(#Elipse_72);
      }
    </style>
    <filter id="Elipse_72" x="0" y="0" width="310" height="310" filterUnits="userSpaceOnUse">
      <feOffset dy="3" input="SourceAlpha"/>
      <feGaussianBlur stdDeviation="25" result="blur"/>
      <feFlood flood-color="#bebebe" flood-opacity="0.502"/>
      <feComposite operator="in" in2="blur"/>
      <feComposite in="SourceGraphic"/>
    </filter>
  </defs>
  <g id="Grupo_2537" data-name="Grupo 2537" transform="translate(-1265.43 -1292.57)">
    <g class="cls-3" transform="matrix(1, 0, 0, 1, 1265.43, 1292.57)">
      <circle id="Elipse_72-2" data-name="Elipse 72" class="cls-1" cx="80" cy="80" r="80" transform="translate(75 232) rotate(-90)"/>
    </g>
    <g id="checking" transform="translate(1392.43 1390.983)">
      <path id="Trazado_2682" data-name="Trazado 2682" class="cls-2" d="M56.813,30.125H4.679A4.684,4.684,0,0,0,0,34.8V72.466a4.684,4.684,0,0,0,4.679,4.679H21.708v3.633H19.291a1.8,1.8,0,1,0,0,3.6H42.2a1.8,1.8,0,1,0,0-3.6H39.784V77.145H56.813a4.684,4.684,0,0,0,4.679-4.679V34.8a4.684,4.684,0,0,0-4.679-4.679Zm-52.134,3.6H56.813A1.077,1.077,0,0,1,57.889,34.8v31.5H3.6V34.8a1.077,1.077,0,0,1,1.076-1.076Zm31.5,47.05H25.311V77.145H36.181Zm20.632-7.236H4.679A1.077,1.077,0,0,1,3.6,72.466V69.909H57.889v2.557A1.077,1.077,0,0,1,56.813,73.542Z"/>
      <path id="Trazado_2683" data-name="Trazado 2683" class="cls-2" d="M213.547,173.084a1.8,1.8,0,0,0,2.273.225l5.093-3.4a1.8,1.8,0,1,0-2-3l-3.864,2.576-1.1-1.1a1.8,1.8,0,0,0-2.548,2.548Z" transform="translate(-185.549 -120.096)"/>
      <path id="Trazado_2684" data-name="Trazado 2684" class="cls-2" d="M163.281,115.686a12.656,12.656,0,1,0-12.656-12.656A12.67,12.67,0,0,0,163.281,115.686Zm0-21.708a9.053,9.053,0,1,1-9.053,9.053A9.063,9.063,0,0,1,163.281,93.978Z" transform="translate(-132.535 -53.014)"/>
    </g>
  </g>
</svg>
